PathFileType	4	(X/Y/Z)	 s02c0101.trc
DataRate	CameraRate	NumFrames	NumMarkers	Units	OrigDataRate	OrigDataStartFrame	OrigNumFrames
200	200	6	51	mm	200	1501	2000
Frame#	Time	racr			lacr			c7			jug			rlel			rdr			llel			ldr			s2			lic			ric			lasi			rasi			rpsi			lpsi			rgt			lgt			rth1			rth2			rth3			rth4			rlfc			rmfc			rsh1			rsh2			rsh3			rsh4			rlmal			rmmal			rtoe			rmt5			rmt1			lth1			lth2			lth4			lth3			llfc			lmfc			lsh1			lsh2			lsh3			lsh4			llmal			lmmal			lcal			ltoe			lmt1			lmt5			SBIKE			LBIKE			RBIKE			
		X1	Y1	Z1	X2	Y2	Z2	X3	Y3	Z3	X4	Y4	Z4	X5	Y5	Z5	X6	Y6	Z6	X7	Y7	Z7	X8	Y8	Z8	X9	Y9	Z9	X10	Y10	Z10	X11	Y11	Z11	X12	Y12	Z12	X13	Y13	Z13	X14	Y14	Z14	X15	Y15	Z15	X16	Y16	Z16	X17	Y17	Z17	X18	Y18	Z18	X19	Y19	Z19	X20	Y20	Z20	X21	Y21	Z21	X22	Y22	Z22	X23	Y23	Z23	X24	Y24	Z24	X25	Y25	Z25	X26	Y26	Z26	X27	Y27	Z27	X28	Y28	Z28	X29	Y29	Z29	X30	Y30	Z30	X31	Y31	Z31	X32	Y32	Z32	X33	Y33	Z33	X34	Y34	Z34	X35	Y35	Z35	X36	Y36	Z36	X37	Y37	Z37	X38	Y38	Z38	X39	Y39	Z39	X40	Y40	Z40	X41	Y41	Z41	X42	Y42	Z42	X43	Y43	Z43	X44	Y44	Z44	X45	Y45	Z45	X46	Y46	Z46	X47	Y47	Z47	X48	Y48	Z48	X49	Y49	Z49	X50	Y50	Z50	X51	Y51	Z51	
1501	7.5050	516.443111	1258.416679	-134.791752	532.925839	1244.847117	-479.870987	516.314624	1309.825706	-311.702182	459.871837	1179.682246	-313.417282	543.944349	992.723041	-67.316946	720.878529	861.304955	-120.948382	517.748953	978.085433	-584.731750	692.945631	846.088123	-508.877179	3.678614	1112.683166	-331.067011	138.398431	1118.763424	-473.948162	125.006461	1132.401883	-189.449659	181.175800	1088.231432	-448.327009	179.376812	1108.079467	-211.551510	20.854116	1166.112262	-290.778518	26.055697	1156.127955	-375.499440	112.832301	1050.814993	-150.773551	92.078832	1017.674415	-502.677687	203.763597	1011.587942	-139.483230	287.860453	985.254262	-142.314413	348.128917	929.225024	-118.480134	303.963131	1007.737934	-168.329857	446.565684	819.699486	-151.575555	441.326157	800.223093	-259.487209	438.361437	708.048098	-132.959418	435.350040	620.168497	-152.267324	394.697652	544.777581	-148.130571	449.951396	619.653655	-189.064960	353.181838	437.026231	-152.167021	358.181518	452.705264	-233.195829	565.553316	382.341286	-184.942540	455.956916	366.871634	-125.834587	482.748875	383.398937	-233.616768	210.346636	933.746904	-509.945642	284.458914	888.251575	-506.575225	308.066407	910.795344	-489.946039	325.967029	809.863850	-509.322509	382.886175	727.467504	-487.516985	381.370839	696.249020	-384.076155	327.189521	640.162537	-508.219547	286.194268	565.639987	-492.451003	210.082526	517.069973	-495.652418	302.731167	554.413471	-456.197135	126.838487	447.509017	-485.796783	141.945009	434.648973	-408.068046	48.889948	451.084689	-443.147621	237.744544	235.572490	-435.653272	180.681288	295.288645	-393.507403	148.609024	292.284865	-501.663206	-162.184731	860.474677	-309.868011	37.388498	86.184598	-514.371003	33.985145	83.102189	-114.266860	
1502	7.5100	516.954095	1257.891536	-134.806775	532.240795	1244.483741	-479.938205	515.815687	1309.508081	-311.572540	460.098594	1178.954218	-313.117955	544.226422	992.497508	-66.538814	721.029883	861.287271	-120.866698	518.030460	977.914437	-585.162817	693.068677	845.947268	-508.914032	4.039785	1110.505110	-331.043759	138.314421	1117.491767	-473.187157	125.520862	1130.395385	-188.484853	181.188676	1087.183473	-447.594556	179.974605	1106.148269	-210.613981	20.973052	1163.616550	-290.065819	25.734407	1153.817010	-374.459725	112.586598	1047.042475	-151.502596	93.364665	1016.489250	-502.628020	203.168137	1006.554531	-138.775809	286.785228	978.944497	-141.342551	345.899447	921.455579	-117.910225	303.434952	1001.523524	-166.808347	443.646880	812.145640	-151.425386	438.089426	792.798783	-259.395596	436.527541	700.336367	-132.405635	434.971132	612.320392	-151.227040	395.496940	536.225776	-147.256987	449.599798	611.808763	-188.076461	355.699079	427.044948	-151.406286	361.212233	443.242269	-231.427272	567.900190	370.499995	-185.168481	457.909659	355.258692	-126.454989	484.920805	373.163496	-233.492402	213.203123	934.908739	-509.505113	288.297616	891.118738	-505.840004	311.243887	914.000177	-488.732842	331.607969	813.485121	-508.533454	389.706816	732.297926	-486.933870	387.436778	701.104398	-383.347982	332.868250	646.013159	-507.493834	290.176515	572.392933	-491.635989	213.048619	525.461003	-495.073937	306.471505	560.936848	-455.333146	128.221865	458.268774	-485.466850	142.906272	445.165345	-407.599779	50.211431	463.048623	-442.916053	235.857128	244.637101	-435.582960	179.857130	305.403964	-393.517171	147.671442	302.952929	-501.505369	-162.157940	860.575757	-309.714267	37.413469	86.215222	-514.340557	33.979920	83.133057	-114.244375	
1503	7.5150	517.434054	1257.369499	-134.827849	531.624480	1244.073198	-479.947021	515.289626	1309.228898	-311.429675	460.148493	1178.273248	-312.792116	544.431121	992.269224	-65.656344	721.041896	861.230427	-120.657847	518.406944	977.675412	-585.618463	693.156838	845.784936	-508.986238	4.335250	1108.443873	-330.768425	138.121131	1116.332440	-472.497917	126.181870	1128.395700	-187.359130	180.745897	1086.195479	-446.663819	180.657890	1104.380538	-209.593959	20.929935	1161.039289	-289.559670	26.081468	1152.040534	-374.603778	112.598156	1043.980600	-151.710203	94.664716	1015.321904	-502.410176	202.572064	1001.825285	-137.695093	285.704080	972.853500	-140.336929	343.628058	914.208817	-117.307172	303.081283	995.858207	-165.510619	440.665087	804.357105	-151.290351	435.916905	785.397476	-260.582436	434.611650	692.586815	-131.937230	434.445500	604.312999	-150.425861	396.456874	527.607703	-146.401015	448.954080	603.746983	-188.048463	357.747201	417.286763	-150.615822	365.137818	434.502749	-232.741486	569.651638	358.269283	-185.137180	459.925422	344.825024	-125.785616	487.306127	361.877741	-232.393646	216.004828	936.162831	-509.087719	292.051526	894.091024	-505.071754	314.306209	917.302001	-487.517103	337.308111	817.483756	-508.184535	396.984719	738.046600	-487.292647	392.313462	705.771095	-381.700225	338.552977	652.106420	-506.689784	294.286802	579.490415	-490.798178	216.234746	534.028870	-494.459235	310.112985	567.717524	-454.313277	129.773385	469.140955	-485.073080	144.406061	455.716730	-407.159601	51.790172	474.861473	-442.581557	234.486398	254.156324	-435.567649	177.556259	313.796438	-391.881008	147.203102	313.685445	-501.292224	-162.185877	860.507655	-309.756411	37.410808	86.253140	-514.322396	33.990992	83.124529	-114.229003	
1504	7.5200	517.864148	1256.872346	-134.750152	530.893651	1243.604620	-480.183158	514.793455	1308.970244	-311.308416	460.099945	1177.878294	-312.480997	544.731394	992.060281	-64.597489	720.941633	861.183864	-120.345965	518.800339	977.410649	-586.094995	693.217233	845.738390	-509.084631	4.706876	1106.522258	-330.145711	137.982492	1115.008017	-471.620044	126.833453	1126.482667	-186.389812	180.807823	1085.199468	-445.773518	181.480527	1102.696110	-208.502808	22.383364	1157.955085	-288.552305	24.821735	1149.925398	-372.648569	112.637609	1040.972695	-151.487426	96.011321	1014.212302	-502.063451	202.149503	997.545387	-136.606591	284.945360	967.069626	-139.225614	341.403077	907.255190	-116.637996	302.625316	990.044377	-163.745383	437.593174	796.577116	-150.975494	432.483518	778.036052	-260.181815	432.707413	684.414439	-131.143545	434.847321	596.415835	-149.429193	397.130834	519.221941	-145.417550	447.895379	596.685056	-186.986844	359.404980	407.969090	-149.847474	366.615474	425.184095	-231.944716	570.959212	345.876092	-185.436699	460.932774	333.360235	-126.383245	488.564868	350.780869	-232.360862	218.680506	937.550554	-508.627642	295.701761	897.293211	-504.348569	317.247045	920.876697	-486.441197	342.774986	821.771037	-507.747195	403.644374	743.516181	-486.650691	401.474763	710.572011	-382.769635	344.210433	658.436976	-505.882956	298.457670	586.878045	-490.055754	219.211151	542.986227	-494.106768	313.601920	574.590122	-453.139397	131.536213	480.039214	-484.515003	146.020591	466.402996	-406.598152	53.364709	486.543220	-442.217475	234.014113	263.938256	-435.573070	177.594522	324.276034	-391.733586	147.389854	324.463209	-501.163500	-162.189287	860.605414	-309.370784	37.419805	86.242612	-514.323543	33.978566	83.148801	-114.238631	
1505	7.5250	518.308963	1256.443859	-134.586327	530.250404	1243.187757	-480.664598	514.354153	1308.789828	-311.244626	459.991961	1177.471029	-312.199922	545.016860	991.937942	-63.452302	720.790947	861.100113	-119.917731	518.985189	977.085656	-586.648633	693.110335	845.815816	-509.093935	5.188331	1104.569480	-329.361697	137.837084	1113.725101	-470.628119	127.616845	1124.796840	-185.245114	180.917581	1084.300776	-444.844198	182.344223	1101.139231	-207.339668	24.215884	1154.177543	-288.506980	24.594556	1147.788257	-371.786181	112.711120	1038.480681	-150.664502	97.351607	1013.144812	-501.508358	201.894903	993.534175	-135.557101	284.127270	961.633435	-138.174725	339.406056	900.539488	-115.852912	302.330757	984.586626	-162.455942	434.484779	789.031674	-149.611609	427.587992	769.375947	-258.844868	431.049251	676.349685	-130.844286	434.457650	588.037975	-149.152431	397.417419	510.481808	-144.855603	446.507163	588.798119	-186.876365	360.722567	398.821006	-149.251160	367.831342	416.147643	-231.091591	571.990793	333.661329	-185.433285	461.856464	322.938913	-125.888653	489.134414	339.624822	-232.452964	221.204315	939.051004	-508.121097	299.180712	900.734087	-503.693289	320.081696	924.600984	-485.281831	348.329799	826.417012	-507.482117	411.982647	749.679590	-487.368496	405.688799	713.285804	-381.257990	349.740042	665.038233	-505.115239	302.604576	594.518047	-489.224486	222.660520	552.135099	-493.359802	317.812869	581.955374	-452.576785	133.560356	490.988273	-483.871833	147.854722	477.011826	-405.974399	55.088436	498.115543	-441.916040	234.213688	274.148483	-435.575419	178.547164	334.920536	-391.811986	148.142178	335.489180	-500.940864	-162.214534	860.507125	-309.685774	37.414435	86.245465	-514.334762	33.983728	83.123780	-114.243238	
1506	7.5300	518.767720	1255.964921	-134.402293	529.554093	1242.892422	-481.088241	513.980425	1308.727779	-311.319957	459.856342	1177.153831	-311.933254	545.316233	991.840138	-62.248319	720.684413	860.941438	-119.579672	519.024351	976.866183	-587.198207	692.909223	845.816118	-509.155348	6.098099	1102.508349	-328.253316	137.666609	1112.539557	-469.593146	128.475909	1123.170675	-184.083111	181.017384	1083.416075	-443.820109	183.372133	1099.665453	-206.089305	24.963245	1151.247474	-287.241880	24.667083	1145.780905	-370.415118	112.893745	1036.312635	-149.614084	98.635838	1012.246946	-500.819914	201.942713	989.867549	-134.536022	283.582666	956.319250	-137.148754	337.664255	894.079175	-115.003670	302.286558	979.130047	-161.321205	430.893655	780.833390	-148.966992	424.835059	762.077504	-258.409586	428.616088	667.963976	-130.231166	433.266918	579.747206	-148.794596	397.225029	501.676176	-144.306029	444.770368	580.800294	-186.327361	361.658838	389.655756	-148.595485	368.462003	407.383174	-230.119165	572.388019	320.723110	-185.610011	461.645994	311.460286	-126.469976	489.209220	328.394365	-232.321331	223.609265	940.736513	-507.244969	302.458339	904.354473	-503.009752	322.657422	928.682522	-484.232297	353.429640	831.334669	-506.884855	416.550619	755.363646	-485.475928	408.777259	721.821285	-382.872936	355.236370	671.855057	-504.253947	306.793440	602.235975	-488.405963	226.038328	561.362915	-492.599068	321.665280	589.284275	-451.662323	135.797546	501.902364	-483.129174	150.135205	487.444372	-405.491496	57.200830	509.415991	-441.464543	235.128757	284.297269	-435.451293	180.048843	345.655347	-391.960357	149.487631	346.437337	-500.748440	-162.154486	860.569012	-309.830627	37.414268	86.198974	-514.335823	33.990374	83.121643	-114.247066	
